# xmcd
#
# Track frame offsets: 
#        150
#        11669
#        27592
#        43106
#        60181
#        76217
#        91580
#        111669
#        123935
#        133399
#        156711
#        176730
#
# Disc length: 2567 seconds
#
# Revision: 0
# Processed by: cddbd v1.5.2PL0 Copyright (c) Steve Scherf et al.
# Submitted via: ExactAudioCopyFreeDBPlugin 1.0
#
DISCID=a20a050c
DTITLE=Out of Size - Out of Size
DYEAR=2010
DGENRE=Chorus
TTITLE0=Early in the Morning
TTITLE1=Down on the Corner
TTITLE2=New Creation
TTITLE3=How Sweet It Is (To Be Loved By You)
TTITLE4=Lay Me Down
TTITLE5=Rumors Of War
TTITLE6=Swing Low, Sweet Chariot
TTITLE7=Here Comes That Rainbow Again
TTITLE8=Joshua Fit the Battle of Jerico
TTITLE9=Hallelujah
TTITLE10=Forever Youngs
TTITLE11=Oh When the Saints
EXTD=
EXTT0=
EXTT1=
EXTT2=
EXTT3=
EXTT4=
EXTT5=
EXTT6=
EXTT7=
EXTT8=
EXTT9=
EXTT10=
EXTT11=
PLAYORDER=
